<svg width="16" height="16" viewBox="0 0 16 16" fill="none" xmlns="http://www.w3.org/2000/svg">
<path d="M13.018 14.4452C11.5558 15.9075 7.81097 14.5335 4.65379 11.3763C1.49662 8.21911 0.122623 4.47431 1.58489 3.01204L2.54768 2.04924C3.21235 1.38457 4.30756 1.40214 4.99391 2.08849L6.48519 3.57977C7.17153 4.26611 7.1891 5.36132 6.52443 6.02599L6.31763 6.23279C5.95877 6.59165 5.92366 7.17058 6.25711 7.57466C6.57875 7.96442 6.9255 8.35265 7.30147 8.72861C7.67743 9.10458 8.06566 9.45133 8.45542 9.77297C8.8595 10.1064 9.43842 10.0713 9.79729 9.71245L10.0041 9.50565C10.6688 8.84098 11.764 8.85855 12.4503 9.54489L13.9416 11.0362C14.6279 11.7225 14.6455 12.8177 13.9808 13.4824L13.018 14.4452Z" fill="white" stroke="white" stroke-width="1.2"/>
<path d="M11.9438 6.05087C11.7613 5.60554 11.4892 5.18831 11.1276 4.82672C10.7864 4.48554 10.3957 4.22406 9.9786 4.04227" stroke="#A3364E" stroke-width="1.2" stroke-linecap="round"/>
<path d="M9.9787 1.49627C10.9773 1.85804 11.9143 2.43922 12.7149 3.23981C13.5355 4.0605 14.1257 5.02447 14.4852 6.05126" stroke="#A3364E" stroke-width="1.2" stroke-linecap="round"/>
</svg>
