<svg width="552" height="20" viewBox="0 0 552 20" fill="none" xmlns="http://www.w3.org/2000/svg">
<path d="M266.731 9.5289C266.731 9.5289 268.61 7.0969 272.393 8.78579C276.185 10.4747 275.616 20.2027 267.576 19.8058C259.527 19.4089 248.583 1.50668 240.25 3.3729C231.926 5.23068 235.321 11.6822 237.829 11.0151C237.829 11.0151 236.571 8.48179 239.001 7.3249C241.431 6.17646 243.206 8.71824 242.68 9.82446C242.68 9.82446 245.352 6.93646 248.781 9.42757C248.781 9.42757 250.212 10.1791 249.781 11.7245C249.781 11.7245 249.531 12.3156 248.859 12.0791C248.195 11.8427 248.342 11.1249 248.781 11.0658C249.212 11.0151 248.316 10.1369 247.204 10.9222C246.093 11.716 242.801 14.68 238.639 14.1649C234.477 13.6498 231.814 9.3769 234.158 5.09557C236.502 0.82268 243.456 -1.35599 251.048 4.8169C258.648 10.9982 263.5 19.1133 267.86 17.8467C272.221 16.58 273.272 12.4591 271.497 11.2769C269.722 10.0862 271.299 14.8827 268.429 14.7982C265.559 14.7222 265.111 10.9222 266.731 9.51201V9.5289Z" fill="#A3364E"/>
<path d="M267.783 19.848C267.783 19.848 265.198 20.5236 261.802 19.0542C258.407 17.5849 255.986 17.4329 255.494 18.86C255.012 20.2871 254.167 14.9418 258.846 15.0938C258.846 15.0938 259.898 14.9756 259.984 15.0938C260.062 15.212 266.249 19.6454 268.386 19.3751C270.532 19.0965 268.627 19.696 267.783 19.848Z" fill="#A3364E"/>
<path d="M249.29 6.70002C249.29 6.70002 247.084 5.43335 245.352 6.2778C243.611 7.13069 245.446 3.58402 248.359 4.53824C251.272 5.48402 249.29 6.69157 249.29 6.69157V6.70002Z" fill="#A3364E"/>
<path d="M260.544 13.7089C260.544 13.7089 258.571 9.9089 260.105 7.05468C261.639 4.20045 266.008 6.10045 265.559 7.37556C265.559 7.37556 266.852 7.89068 266.369 5.87245C265.887 3.85423 261.802 0.924009 257.881 3.69379C257.881 3.69379 255.658 3.49112 255.098 5.31512C254.529 7.13912 253.762 10.1031 260.553 13.7089H260.544Z" fill="#A3364E"/>
<path d="M283.889 9.5289C283.889 9.5289 282.01 7.0969 278.218 8.78579C274.435 10.4747 274.996 20.2027 283.036 19.8058C291.076 19.4089 302.028 1.50668 310.361 3.3729C318.686 5.23068 315.29 11.6822 312.783 11.0151C312.783 11.0151 314.041 8.48179 311.611 7.3249C309.189 6.17646 307.406 8.71824 307.931 9.82446C307.931 9.82446 305.268 6.93646 301.83 9.42757C301.83 9.42757 300.408 10.1791 300.83 11.7245C300.83 11.7245 301.08 12.3156 301.753 12.0791C302.416 11.8427 302.27 11.1249 301.83 11.0658C301.399 11.0151 302.295 10.1369 303.407 10.9222C304.519 11.716 307.811 14.68 311.973 14.1649C316.135 13.6498 318.806 9.3769 316.462 5.09557C314.118 0.82268 307.164 -1.35599 299.564 4.8169C291.963 10.9982 287.12 19.1133 282.751 17.8467C278.382 16.58 277.339 12.4591 279.115 11.2769C280.89 10.0862 279.313 14.8827 282.191 14.7982C285.061 14.7222 285.5 10.9222 283.889 9.51201V9.5289Z" fill="#A3364E"/>
<path d="M282.846 19.848C282.846 19.848 285.431 20.5236 288.826 19.0542C292.222 17.5849 294.643 17.4329 295.134 18.86C295.617 20.2871 296.47 14.9418 291.782 15.0938C291.782 15.0938 290.731 14.9756 290.653 15.0938C290.567 15.212 284.388 19.6454 282.251 19.3751C280.114 19.0965 282.01 19.696 282.855 19.848H282.846Z" fill="#A3364E"/>
<path d="M301.33 6.70002C301.33 6.70002 303.528 5.43335 305.268 6.2778C307.001 7.13069 305.165 3.58402 302.261 4.53824C299.348 5.48402 301.33 6.69157 301.33 6.69157V6.70002Z" fill="#A3364E"/>
<path d="M290.076 13.7089C290.076 13.7089 292.058 9.9089 290.524 7.05468C288.99 4.20045 284.63 6.10045 285.069 7.37556C285.069 7.37556 283.777 7.89068 284.259 5.87245C284.742 3.85423 288.826 0.924009 292.747 3.69379C292.747 3.69379 294.971 3.49112 295.539 5.31512C296.099 7.13912 296.866 10.1031 290.085 13.7089H290.076Z" fill="#A3364E"/>
<path d="M229.005 7.08002H1.81499C0.808856 7.08002 0 6.53113 0 6.10047C0 5.6698 0.808856 5.12091 1.81499 5.12091H229.005C229.991 5.12091 230.82 5.67824 230.82 6.10047C230.82 6.52269 230.011 7.08002 229.005 7.08002Z" fill="#A3364E"/>
<path d="M549.845 7.08002H322.635C321.629 7.08002 320.82 6.53113 320.82 6.10047C320.82 5.6698 321.629 5.12091 322.635 5.12091H549.845C550.831 5.12091 551.64 5.67824 551.64 6.10047C551.64 6.52269 550.831 7.08002 549.845 7.08002Z" fill="#A3364E"/>
</svg>
